<svg version="1.1" id="Layer_1" xmlns="http://www.w3.org/2000/svg" xmlns:xlink="http://www.w3.org/1999/xlink" x="0px" y="0px"
	 width="100%" viewBox="0 0 384 352" enable-background="new 0 0 384 352" xml:space="preserve">
<path fill="#000000" opacity="1.000000" stroke="none" 
	d="
M192.626984,229.223495 
	C193.371857,232.822357 196.169815,234.650497 198.189728,237.001801 
	C200.115936,239.244019 200.307770,240.861191 197.935562,242.813217 
	C193.692581,246.304672 189.525314,249.891632 185.409683,253.532791 
	C183.596878,255.136642 181.805817,255.670685 180.409622,253.406952 
	C175.634842,245.665237 169.571548,246.193115 161.427414,248.201019 
	C133.489197,255.089081 106.804344,241.053909 97.758987,215.846375 
	C89.015091,191.478958 96.521729,163.994995 116.207802,149.879196 
	C143.026825,130.648773 192.146011,138.125687 201.450516,180.618881 
	C205.170731,197.608902 202.684540,214.080902 192.626984,229.223495 
M133.137619,219.394501 
	C138.313171,223.762253 144.089188,225.812485 151.291443,224.325638 
	C149.569443,220.032822 145.895645,218.005981 143.457825,214.972397 
	C141.525620,212.567993 141.207901,210.911682 143.905472,208.829056 
	C148.375793,205.377747 152.737839,201.759888 156.896683,197.941208 
	C159.416168,195.627762 160.954742,196.278748 163.081863,198.451141 
	C165.560028,200.982056 167.353973,204.278030 171.329208,206.438950 
	C173.771545,195.655472 174.108307,185.477478 168.506836,176.198624 
	C159.151321,160.701126 139.255615,160.804825 129.402649,176.070297 
	C121.326164,188.583420 122.758095,207.588638 133.137619,219.394501 
z"/>
<path fill="#000000" opacity="1.000000" stroke="none" 
	d="
M284.577820,212.787903 
	C275.502594,216.904648 266.258423,217.516174 256.849884,217.370178 
	C247.957504,217.232178 247.951508,217.345215 247.948410,226.438660 
	C247.946548,231.937790 247.906296,237.437714 247.988068,242.935730 
	C248.034485,246.055847 246.802322,247.458221 243.534027,247.384949 
	C237.038361,247.239380 230.524231,247.103882 224.042206,247.438446 
	C219.443268,247.675797 217.969925,246.099503 218.021881,241.481094 
	C218.351700,212.159378 218.436218,182.834900 218.599686,153.511322 
	C218.608978,151.844940 218.803284,150.148895 218.564117,148.517578 
	C217.834793,143.543503 219.671280,141.676346 224.845810,141.870972 
	C239.985168,142.440399 255.152908,141.261642 270.294281,142.679993 
	C298.009308,145.276215 314.085663,171.122849 303.111572,195.655411 
	C299.444336,203.853500 292.988098,209.111633 284.577820,212.787903 
M247.953476,190.199951 
	C247.977768,192.972672 249.535355,193.963913 252.124588,193.919388 
	C255.281891,193.865097 258.442230,193.973450 261.599030,193.907410 
	C270.246155,193.726440 276.823486,187.568802 276.588104,179.936523 
	C276.330475,171.583328 269.953003,165.449875 261.373322,165.340469 
	C258.215454,165.300201 255.052719,165.432922 251.899353,165.307129 
	C248.592819,165.175232 247.512756,166.780518 247.602768,169.874863 
	C247.791092,176.348267 247.820786,182.826279 247.953476,190.199951 
z"/>
<path fill="#000000" opacity="1.000000" stroke="none" 
	d="
M199.142578,85.382446 
	C169.998734,86.850945 143.356094,94.474335 119.614876,111.206696 
	C100.625443,124.590103 85.549446,141.405533 74.472755,161.781586 
	C65.483406,178.317856 59.952904,196.024979 57.162289,214.613892 
	C57.015194,215.593750 56.691910,216.553619 56.379276,217.499207 
	C56.240025,217.920349 55.923405,218.282852 54.778530,218.624908 
	C54.778530,211.452896 54.272064,204.238205 54.872036,197.116730 
	C56.790028,174.350754 63.675827,153.149185 76.209572,133.936905 
	C97.237823,101.703850 126.317238,80.434822 163.662018,71.056458 
	C198.862427,62.216610 232.995102,65.680275 265.708130,81.700760 
	C267.053436,82.359596 268.370605,83.078880 269.680664,83.806328 
	C279.889496,89.474869 280.756714,93.153603 274.345703,102.931976 
	C272.863312,105.192932 271.148956,104.156273 269.540100,103.468979 
	C263.879913,101.050995 258.284607,98.481606 252.633057,96.042946 
	C235.711182,88.741127 217.794159,86.350410 199.142578,85.382446 
z"/>
<path fill="#000000" opacity="1.000000" stroke="none" 
	d="
M191.718567,281.874756 
	C191.714691,277.897369 191.729004,274.398285 191.706375,270.899414 
	C191.692215,268.710022 192.711685,267.405823 194.906021,267.229156 
	C200.336731,266.791992 205.703339,266.628265 209.556839,272.628571 
	C210.223480,269.955597 210.085846,267.116119 213.457321,266.977539 
	C216.483459,266.853210 216.961884,268.846222 217.452377,271.062988 
	C217.641403,271.917267 218.295319,272.623169 219.203278,272.602692 
	C225.052155,272.470978 226.911591,276.118256 227.046677,281.336945 
	C228.575958,280.558197 229.337326,279.528931 228.873993,278.361694 
	C227.673615,275.337738 228.371353,273.544128 231.707809,273.027802 
	C235.341843,272.465424 238.994705,272.341797 240.655792,276.407898 
	C241.932724,279.533630 241.569122,283.004700 241.059174,286.283600 
	C240.751923,288.259186 233.201401,289.417023 230.275940,287.987183 
	C229.263062,287.492157 228.452652,286.582886 227.546082,285.859894 
	C223.158798,290.170746 222.209900,289.541992 218.641190,279.871918 
	C216.517075,280.452637 217.288727,282.246399 217.204941,283.542084 
	C217.046295,285.995209 217.019409,288.327942 213.586304,288.288879 
	C210.045593,288.248566 210.361115,285.616058 210.150024,283.348053 
	C209.996094,281.694061 209.958191,280.029266 209.822266,277.511810 
	C207.372467,280.815491 204.561234,282.502380 201.119781,283.048126 
	C200.136810,283.204010 198.869049,283.368958 198.683197,284.466919 
	C198.225708,287.169739 197.134857,288.901489 194.088425,288.145752 
	C190.751343,287.317902 192.090424,284.460175 191.718567,281.874756 
z"/>
<path fill="#000000" opacity="1.000000" stroke="none" 
	d="
M140.292145,285.412415 
	C139.884766,288.551025 138.330124,289.919800 135.494247,288.968292 
	C134.128647,288.510132 132.933655,288.743652 131.613876,288.868927 
	C126.312843,289.372070 121.582840,286.203369 120.111702,281.303253 
	C118.571655,276.173584 120.666107,270.856567 125.168190,268.466705 
	C130.035248,265.883087 135.645142,266.925110 139.178055,271.030579 
	C140.167358,272.180176 140.484741,274.229095 142.873108,273.510132 
	C147.405121,272.145844 148.890869,274.517548 149.009720,278.632385 
	C149.043701,279.809082 148.650269,281.389160 150.483810,281.981812 
	C152.253647,280.565826 151.543213,278.641785 151.383377,276.940216 
	C151.178162,274.755707 151.654694,273.267365 154.131790,273.247559 
	C156.481857,273.228729 158.525909,273.703522 158.424637,276.746887 
	C158.397018,277.577240 158.361023,278.407379 158.343567,279.237946 
	C158.164398,287.764648 155.794968,289.924774 147.437531,289.077789 
	C143.181946,288.646545 142.484360,285.234863 141.804352,281.787292 
	C140.102509,282.534546 140.281921,283.863037 140.292145,285.412415 
M133.413757,277.041840 
	C133.833740,275.021240 132.755478,273.930969 130.996918,273.450928 
	C129.557968,273.058136 128.412750,273.731506 127.727165,275.003662 
	C126.606049,277.083954 126.253899,279.146545 127.962578,281.145935 
	C129.837082,279.819305 131.420578,278.698608 133.413757,277.041840 
z"/>
<path fill="#000000" opacity="1.000000" stroke="none" 
	d="
M276.834076,288.152771 
	C269.635529,288.925598 273.300812,282.638550 271.009491,280.050568 
	C269.242004,281.137177 269.478119,282.880554 269.431732,284.411591 
	C269.363403,286.664490 268.889008,288.319183 266.102844,288.250549 
	C263.285065,288.181122 263.016357,286.316284 262.891846,284.190918 
	C262.817291,282.918518 262.619019,281.653381 262.416229,279.850311 
	C259.511963,282.465240 262.817719,289.197327 256.544067,288.134064 
	C251.077408,287.207550 255.424545,281.644562 252.838531,278.978485 
	C249.258087,278.841370 249.271332,281.463501 249.179153,283.991791 
	C249.093903,286.330383 248.708984,288.340912 245.630005,288.245819 
	C242.297867,288.142944 242.723694,285.722137 242.651627,283.607666 
	C242.324356,274.004089 242.331512,274.016113 251.402405,273.673248 
	C258.442017,273.407227 265.480286,273.106476 272.519104,272.819550 
	C275.517120,272.697327 277.948425,273.747498 278.459625,276.884216 
	C279.074219,280.655518 280.638153,284.668854 276.834076,288.152771 
z"/>
<path fill="#000000" opacity="1.000000" stroke="none" 
	d="
M121.791077,322.634155 
	C121.699837,320.354218 121.667717,318.529694 121.669815,316.705261 
	C121.677895,309.668976 122.435280,308.555115 129.371353,309.942657 
	C133.883881,310.845428 138.636353,312.542755 141.554459,316.869873 
	C141.842529,316.820496 142.248993,316.876190 142.424561,316.700775 
	C143.714188,315.412354 144.138672,312.206268 146.622620,313.490662 
	C149.522018,314.989929 146.916809,317.262054 146.294754,319.044891 
	C145.260147,322.010071 144.127335,325.032013 142.021423,327.418274 
	C140.467194,329.179474 138.180923,329.955811 136.305145,328.116364 
	C134.477966,326.324554 136.875931,325.687012 137.654495,324.408661 
	C139.652069,321.128784 136.482513,318.968689 135.034973,316.354523 
	C135.048508,319.252655 136.547638,322.808258 132.841766,324.080811 
	C129.242279,325.316803 125.207809,326.744507 121.791077,322.634155 
z"/>
<path fill="#000000" opacity="1.000000" stroke="none" 
	d="
M174.276093,313.083069 
	C178.610672,312.377136 180.615463,315.040833 183.503647,319.395966 
	C182.048874,314.232971 184.010269,312.977051 187.032959,312.919830 
	C189.911087,312.865326 192.595352,313.838989 193.027924,316.962982 
	C193.382965,319.527039 194.872742,323.275177 191.474365,324.479858 
	C187.633575,325.841370 183.219543,326.181030 180.869354,320.432037 
	C180.368484,324.604492 178.097122,325.411041 175.134125,325.004517 
	C172.476929,324.639954 170.344452,323.424622 169.803741,320.567657 
	C169.137756,317.048798 170.117538,314.310944 174.276093,313.083069 
z"/>
<path fill="#000000" opacity="1.000000" stroke="none" 
	d="
M165.960785,272.768066 
	C172.211472,273.845490 176.438293,282.875366 172.539444,286.912872 
	C170.017960,289.523987 165.675201,289.188446 162.284439,288.017059 
	C159.282562,286.980072 158.263428,284.260468 159.648315,281.066650 
	C159.973862,280.315887 160.610168,279.385559 160.405869,278.769043 
	C158.764725,273.816833 161.904999,273.118134 165.960785,272.768066 
z"/>
<path fill="#000000" opacity="1.000000" stroke="none" 
	d="
M268.974365,315.949432 
	C269.041901,316.940033 269.150879,317.929871 269.170166,318.921387 
	C269.275909,324.355927 264.892487,327.009064 259.992493,324.489655 
	C256.784210,322.840057 257.111816,320.180420 260.984192,317.422424 
	C257.046875,316.121094 254.843338,317.389252 254.357712,321.450653 
	C254.177231,322.960083 254.131958,324.652893 252.023163,324.535126 
	C250.044739,324.424652 249.829453,322.796661 249.781387,321.259247 
	C249.551453,313.905762 249.262146,311.865021 257.566833,313.370880 
	C261.222565,314.033813 265.521088,311.218292 268.746857,315.742432 
	C268.993530,315.983795 268.974365,315.949432 268.974365,315.949432 
z"/>
<path fill="#000000" opacity="1.000000" stroke="none" 
	d="
M187.137329,272.147980 
	C185.332962,272.078339 183.901749,271.907196 182.385178,271.725830 
	C181.023621,275.822174 181.308044,279.987152 181.296249,284.115021 
	C181.289124,286.610901 180.639450,288.320251 177.663055,288.263245 
	C174.739700,288.207275 174.626831,286.258057 174.627808,284.159637 
	C174.629898,279.678680 174.652496,275.197754 174.669144,270.716797 
	C174.670380,270.384277 174.689209,270.051697 174.703247,269.719299 
	C174.782578,267.841980 176.334244,266.482208 177.576355,267.102448 
	C181.368774,268.996246 185.282181,263.584167 188.641068,267.420563 
	C189.988785,268.959839 189.487122,270.888062 187.137329,272.147980 
z"/>
<path fill="#000000" opacity="1.000000" stroke="none" 
	d="
M159.332779,313.475128 
	C161.875671,315.557312 163.092667,314.507843 163.697037,312.048920 
	C164.010239,310.774719 164.697159,309.933563 166.100891,310.052948 
	C167.548004,310.176056 168.043274,311.266449 168.078369,312.490631 
	C168.168625,315.639038 168.192978,318.791290 168.148590,321.940643 
	C168.131393,323.160736 167.648163,324.278442 166.241272,324.477722 
	C164.548996,324.717438 163.840927,323.696106 163.664017,322.178772 
	C163.496414,320.741333 163.038483,319.533997 161.329559,319.510925 
	C159.598633,319.487549 159.185669,320.756836 158.929657,322.143585 
	C158.669434,323.553223 158.076920,324.813385 156.420502,324.685944 
	C154.549347,324.541962 154.052231,323.058777 154.005569,321.464386 
	C153.932831,318.978363 153.890350,316.486877 153.975403,314.002472 
	C154.030396,312.396088 153.846436,310.414764 156.056442,310.032166 
	C158.347443,309.635590 158.635117,311.587799 159.332779,313.475128 
z"/>
<path fill="#000000" opacity="1.000000" stroke="none" 
	d="
M195.927383,309.335907 
	C198.970413,308.727997 198.989578,310.967621 199.773376,312.904907 
	C204.159180,308.054138 205.572250,312.796997 208.212082,315.224182 
	C205.219635,317.928925 204.805420,320.571259 208.249115,322.882416 
	C203.986969,326.593262 202.064362,325.249725 200.139282,317.152222 
	C198.813492,319.012726 199.460480,320.844543 199.100250,322.422699 
	C198.812729,323.682251 198.208344,324.592804 196.801147,324.556732 
	C195.342636,324.519318 194.732330,323.506653 194.785614,322.234863 
	C194.963364,317.994202 193.755432,313.663666 195.927383,309.335907 
z"/>
<path fill="#000000" opacity="1.000000" stroke="none" 
	d="
M240.885788,319.700806 
	C238.900787,324.634064 235.475250,326.371979 230.828491,324.778473 
	C229.567993,324.346222 228.084854,323.904480 228.354004,322.194977 
	C228.638306,320.389221 230.165619,320.637970 231.511017,320.721710 
	C232.476120,320.781708 233.491150,321.129883 234.537750,320.269897 
	C234.205765,319.956146 233.947067,319.508026 233.589371,319.405579 
	C230.577286,318.542969 227.407059,317.441956 228.333496,313.549957 
	C229.327591,309.373718 233.006927,309.448303 236.430801,309.788818 
	C237.947632,309.939667 239.656891,310.361664 239.325546,312.373230 
	C238.978287,314.481445 237.314804,314.102173 235.787292,313.709229 
	C235.344910,313.595428 234.848465,313.691742 234.096680,314.328705 
	C235.881317,315.158417 237.665955,315.988159 239.861664,317.133667 
	C240.477097,318.199921 240.681442,318.950348 240.885788,319.700806 
z"/>
<path fill="#000000" opacity="1.000000" stroke="none" 
	d="
M209.225098,311.708740 
	C209.641937,310.125488 210.101974,308.980469 211.572525,309.085632 
	C216.007797,309.402832 222.165771,317.261932 221.481430,321.619873 
	C221.270767,322.961517 221.197754,324.491272 219.465271,324.594604 
	C217.491531,324.712402 217.114990,323.177490 216.895630,321.589600 
	C216.722748,320.338287 217.218781,318.874207 215.595825,317.752991 
	C213.439621,318.556396 214.222290,320.675537 213.843979,322.230621 
	C213.553650,323.424072 213.164352,324.536041 211.723251,324.622498 
	C209.994415,324.726227 209.321213,323.509705 209.264343,322.097504 
	C209.130615,318.777832 209.178268,315.450806 209.225098,311.708740 
z"/>
<path fill="#000000" opacity="1.000000" stroke="none" 
	d="
M182.778687,283.806305 
	C182.771378,281.007782 182.762283,278.676086 182.771439,276.344482 
	C182.780685,273.988647 184.142441,273.107361 186.312057,273.191193 
	C188.320389,273.268768 189.326019,274.315002 189.313675,276.359711 
	C189.298615,278.857727 189.369446,281.356445 189.341660,283.854156 
	C189.319244,285.867645 189.442169,287.992767 186.536316,288.227936 
	C183.593170,288.466156 182.719788,286.838562 182.778687,283.806305 
z"/>
<path fill="#000000" opacity="1.000000" stroke="none" 
	d="
M241.051193,320.047058 
	C240.681442,318.950348 240.477097,318.199921 240.191650,317.272278 
	C239.552994,314.298248 240.651184,311.943176 243.116531,311.050293 
	C246.058029,309.984924 246.343613,313.753082 248.845673,314.685944 
	C246.112213,317.720367 245.983231,320.616058 248.776535,323.247101 
	C244.671814,325.988007 243.488434,325.490387 241.051193,320.047058 
z"/>
<path fill="#000000" opacity="1.000000" stroke="none" 
	d="
M269.004456,315.999634 
	C271.840454,309.336365 272.652557,309.237640 277.806152,315.245178 
	C275.085236,317.886353 275.063477,320.684753 278.291626,323.110321 
	C274.635681,325.730896 272.088257,325.078247 271.038330,321.508881 
	C270.539612,319.813416 271.096802,317.809723 269.256073,316.186218 
	C268.974365,315.949432 268.993530,315.983795 269.004456,315.999634 
z"/>
</svg>